<svg xmlns="http://www.w3.org/2000/svg" fill="none" aria-label="Two wedding rings" viewBox="0 0 120 56"><clipPath id="a"><path d="M0 0h120v56H0z"/></clipPath><g clip-path="url(#a)"><svg width="28.216" height="17.574" x="28.713" y="11.026" preserveAspectRatio="none" viewBox="0 0 28.216 17.574"><path stroke="#505a31" stroke-linecap="round" d="M0 17.574C.576 8.504 8.781.01 18.09.01c2.88-.096 6.527.432 10.126 2.59" vector-effect="non-scaling-stroke"/></svg><svg width="28.12" height="17.947" x="58.656" y="31.095" preserveAspectRatio="none" viewBox="0 0 28.12 17.947"><path stroke="#505a31" stroke-linecap="round" d="M0 15.26c2.543 1.487 5.71 2.687 9.837 2.687C19.242 17.755 27.257 11.085 28.12 0" vector-effect="non-scaling-stroke"/></svg><svg width="1" height="1" x="57.169" y="13.772" preserveAspectRatio="none" viewBox="0 0 1 1"/><svg width="37.237" height="18.043" x="28.665" y="30.807" preserveAspectRatio="none" viewBox="0 0 37.237 18.043"><path stroke="#505a31" stroke-linecap="round" d="M0 0c.576 9.501 7.582 17.947 18.859 18.043 9.453 0 17.515-6.43 18.378-17.851" vector-effect="non-scaling-stroke"/></svg><svg width="7.391" height="25.865" x="49.682" y="15.5" preserveAspectRatio="none" viewBox="0 0 7.391 25.865"><path stroke="#505a31" stroke-linecap="round" d="M7.39 0C3.505 2.831.002 7.966.002 14.828c-.048 4.27 1.68 8.013 3.887 11.037" vector-effect="non-scaling-stroke"/></svg><svg width="29.752" height="17.371" x="56.881" y="11.517" preserveAspectRatio="none" viewBox="0 0 29.751 17.371"><path stroke="#505a31" stroke-linecap="round" d="M0 4.319C2.64 2.352 6.094.049 11.229 0c8.973-.048 17.275 6.766 18.522 17.371" vector-effect="non-scaling-stroke"/></svg><svg width="15.884" height="14.204" x="30.68" y="12.62" preserveAspectRatio="none" viewBox="0 0 15.883 14.204"><path stroke="#505a31" stroke-linecap="round" d="M15.883 0C9.597.288 2.303 5.183 0 14.204" vector-effect="non-scaling-stroke"/></svg><svg width="10.317" height="11.565" x="73.916" y="14.684" preserveAspectRatio="none" viewBox="0 0 10.317 11.565"><path stroke="#505a31" stroke-linecap="round" stroke-linejoin="round" d="M0 0c3.215 1.104 8.686 4.895 10.317 11.565" vector-effect="non-scaling-stroke"/></svg><svg width="14.876" height="10.989" x="68.973" y="36.422" preserveAspectRatio="none" viewBox="0 0 14.876 10.989"><path stroke="#505a31" stroke-linecap="round" stroke-linejoin="round" d="M0 10.989C5.47 10.749 11.709 7.869 14.876 0" vector-effect="non-scaling-stroke"/></svg><svg width="20.586" height="13.1" x="32.984" y="15.548" preserveAspectRatio="none" viewBox="0 0 20.586 13.1"><path stroke="#505a31" stroke-linecap="round" d="M20.586 1.296C19.146.672 17.323 0 14.78 0 7.294.096.864 5.806 0 13.1" vector-effect="non-scaling-stroke"/></svg><svg width="28.51" height="22.842" x="32.984" y="21.354" preserveAspectRatio="none" viewBox="0 0 28.51 22.841"><path stroke="#505a31" stroke-linecap="round" d="M0 9.453c.432 5.95 5.422 13.245 14.588 13.388 7.63-.096 13.772-5.614 13.916-14.203.096-2.4-.864-5.567-2.831-8.638" vector-effect="non-scaling-stroke"/></svg><svg width="28.36" height="22.602" x="53.906" y="16.075" preserveAspectRatio="none" viewBox="0 0 28.36 22.602"><path stroke="#505a31" stroke-linecap="round" d="M3.071 22.602C1.296 20.682 0 17.323 0 14.204 0 8.35 4.895 0 14.252 0 20.97 0 27.448 5.278 28.36 12.524" vector-effect="non-scaling-stroke"/></svg><svg width="3.887" height="10.989" x="62.015" y="18.667" preserveAspectRatio="none" viewBox="0 0 3.887 10.989"><path stroke="#505a31" stroke-linecap="round" d="M0 0c1.92 2.64 3.599 6.286 3.887 10.989" vector-effect="non-scaling-stroke"/></svg><svg width="20.394" height="13.532" x="62.015" y="31.047" preserveAspectRatio="none" viewBox="0 0 20.394 13.532"><path stroke="#505a31" stroke-linecap="round" d="M0 12.237c1.823.767 3.599 1.295 6.238 1.295C13.82 13.388 20.01 7.63 20.394 0" vector-effect="non-scaling-stroke"/></svg><svg width="77.786" height="5.854" x="18.54" y="26.728" preserveAspectRatio="none" viewBox="0 0 77.786 5.854"><path stroke="#505a31" stroke-linejoin="round" d="M8.925 3.023 5.087.048m1.343 2.88L2.351.047m1.296 2.831L0 0m5.23 5.806 3.647-2.783H6.478L2.543 5.806m-2.495.048 3.743-2.927-2.207.048m7.245.048 20.923.048m7.006.048 41.028.048" vector-effect="non-scaling-stroke"/></svg><svg width="6.44" height="4.603" x="94.876" y="27.609" preserveAspectRatio="none" viewBox="0 0 6.44 4.603"><path stroke="#505a31" stroke-linejoin="round" d="m.25.08 6.19 2.159L.202 4.542c-.432.192-.24.048 1.248-2.16l-.048-.047C1.306 1.663.154.03.154.03S.106-.065.25.08z" vector-effect="non-scaling-stroke"/></svg><svg width="3.743" height="3.839" x="61.104" y="5.279" preserveAspectRatio="none" viewBox="0 0 3.743 3.839"><path stroke="#505a31" stroke-linecap="round" stroke-linejoin="round" d="M1.871 0c0 1.344.384 1.871 1.872 1.871-1.056 0-1.872.528-1.872 1.968C1.871 2.735 1.344 1.87 0 1.87c.912 0 1.871-.527 1.871-1.871" vector-effect="non-scaling-stroke"/></svg><svg width="4.415" height="4.703" x="82.122" y="46.067" preserveAspectRatio="none" viewBox="0 0 4.415 4.703"><path stroke="#505a31" stroke-linecap="round" stroke-linejoin="round" d="M2.207 0c0 1.392.528 2.16 2.208 2.351-1.2.192-2.16.576-2.208 2.352 0-1.392-.575-2.256-2.207-2.304C1.104 2.4 2.111 1.871 2.207 0" vector-effect="non-scaling-stroke"/></svg><svg width="6.334" height="6.574" x="85.913" y="38.533" preserveAspectRatio="none" viewBox="0 0 6.334 6.574"><path stroke="#505a31" stroke-linecap="round" stroke-linejoin="round" d="M3.023 0c.048 2.543 1.44 3.023 3.311 3.215-2.16.096-3.263 1.008-3.31 3.36 0-1.824-.865-3.264-3.024-3.36 1.2 0 2.831-.432 3.023-3.215" vector-effect="non-scaling-stroke"/></svg><svg width="4.559" height="4.559" x="31.256" y="8.014" preserveAspectRatio="none" viewBox="0 0 4.559 4.559"><path stroke="#505a31" stroke-linecap="round" stroke-linejoin="round" d="M2.207 0c.048 1.392.576 2.16 2.352 2.303-1.248 0-2.4.864-2.352 2.256 0-1.392-.527-2.256-2.207-2.256C1.104 2.255 2.16 1.92 2.207 0" vector-effect="non-scaling-stroke"/></svg><svg width="4.511" height="4.895" x="25.978" y="12.86" preserveAspectRatio="none" viewBox="0 0 4.511 4.895"><path stroke="#505a31" stroke-linecap="round" stroke-linejoin="round" d="M2.207 0c.096 1.296.72 2.303 2.304 2.447-1.584 0-2.304.864-2.304 2.448 0-1.44-.72-2.4-2.207-2.4 1.248 0 2.111-.576 2.207-2.495" vector-effect="non-scaling-stroke"/></svg></g></svg>